<svg width="386" height="338" viewBox="0 0 386 338" fill="none" xmlns="http://www.w3.org/2000/svg">
<circle cx="12.96" cy="13.1753" r="12.5" fill="#D9D9D9" fill-opacity="0.1"/>
<circle cx="52.9597" cy="13.1753" r="12.5" fill="#D9D9D9" fill-opacity="0.1"/>
<circle cx="92.9602" cy="13.1753" r="12.5" fill="#D9D9D9" fill-opacity="0.1"/>
<circle cx="132.96" cy="13.1753" r="12.5" fill="#D9D9D9" fill-opacity="0.1"/>
<circle cx="172.959" cy="13.175" r="12.5" fill="#D9D9D9" fill-opacity="0.1"/>
<circle cx="212.96" cy="13.1753" r="12.5" fill="#D9D9D9" fill-opacity="0.1"/>
<circle cx="252.96" cy="13.175" r="12.5" fill="#D9D9D9" fill-opacity="0.1"/>
<circle cx="292.96" cy="13.1753" r="12.5" fill="#D9D9D9" fill-opacity="0.1"/>
<circle cx="332.961" cy="13.1755" r="12.5" fill="#D9D9D9" fill-opacity="0.1"/>
<circle cx="372.96" cy="13.1755" r="12.5" fill="#D9D9D9" fill-opacity="0.1"/>
<circle cx="12.9607" cy="65.1755" r="12.5" fill="#D9D9D9" fill-opacity="0.1"/>
<circle cx="52.9604" cy="65.1755" r="12.5" fill="#D9D9D9" fill-opacity="0.1"/>
<circle cx="92.9609" cy="65.1755" r="12.5" fill="#D9D9D9" fill-opacity="0.1"/>
<circle cx="132.961" cy="65.1755" r="12.5" fill="#D9D9D9" fill-opacity="0.1"/>
<circle cx="172.96" cy="65.1753" r="12.5" fill="#D9D9D9" fill-opacity="0.1"/>
<circle cx="212.961" cy="65.1755" r="12.5" fill="#D9D9D9" fill-opacity="0.1"/>
<circle cx="252.96" cy="65.1753" r="12.5" fill="#D9D9D9" fill-opacity="0.1"/>
<circle cx="292.961" cy="65.1755" r="12.5" fill="#D9D9D9" fill-opacity="0.1"/>
<circle cx="332.961" cy="65.1758" r="12.5" fill="#D9D9D9" fill-opacity="0.1"/>
<circle cx="372.961" cy="65.1758" r="12.5" fill="#D9D9D9" fill-opacity="0.1"/>
<circle cx="12.96" cy="117.175" r="12.5" fill="#D9D9D9" fill-opacity="0.1"/>
<circle cx="52.9597" cy="117.175" r="12.5" fill="#D9D9D9" fill-opacity="0.1"/>
<circle cx="92.9602" cy="117.175" r="12.5" fill="#D9D9D9" fill-opacity="0.1"/>
<circle cx="132.96" cy="117.175" r="12.5" fill="#D9D9D9" fill-opacity="0.1"/>
<circle cx="172.959" cy="117.175" r="12.5" fill="#D9D9D9" fill-opacity="0.1"/>
<circle cx="212.96" cy="117.175" r="12.5" fill="#D9D9D9" fill-opacity="0.1"/>
<circle cx="252.96" cy="117.175" r="12.5" fill="#D9D9D9" fill-opacity="0.1"/>
<circle cx="292.96" cy="117.175" r="12.5" fill="#D9D9D9" fill-opacity="0.1"/>
<circle cx="332.961" cy="117.176" r="12.5" fill="#D9D9D9" fill-opacity="0.1"/>
<circle cx="372.96" cy="117.176" r="12.5" fill="#D9D9D9" fill-opacity="0.1"/>
<circle cx="12.96" cy="169.175" r="12.5" fill="#D9D9D9" fill-opacity="0.1"/>
<circle cx="52.9597" cy="169.175" r="12.5" fill="#D9D9D9" fill-opacity="0.1"/>
<circle cx="92.9602" cy="169.175" r="12.5" fill="#D9D9D9" fill-opacity="0.1"/>
<circle cx="132.96" cy="169.175" r="12.5" fill="#D9D9D9" fill-opacity="0.1"/>
<circle cx="172.959" cy="169.175" r="12.5" fill="#D9D9D9" fill-opacity="0.1"/>
<circle cx="212.96" cy="169.175" r="12.5" fill="#D9D9D9" fill-opacity="0.1"/>
<circle cx="252.96" cy="169.175" r="12.5" fill="#D9D9D9" fill-opacity="0.1"/>
<circle cx="292.96" cy="169.175" r="12.5" fill="#D9D9D9" fill-opacity="0.1"/>
<circle cx="332.961" cy="169.176" r="12.5" fill="#D9D9D9" fill-opacity="0.1"/>
<circle cx="372.96" cy="169.176" r="12.5" fill="#D9D9D9" fill-opacity="0.1"/>
<circle cx="12.96" cy="221.176" r="12.5" fill="#D9D9D9" fill-opacity="0.1"/>
<circle cx="52.9597" cy="221.176" r="12.5" fill="#D9D9D9" fill-opacity="0.1"/>
<circle cx="92.9602" cy="221.176" r="12.5" fill="#D9D9D9" fill-opacity="0.1"/>
<circle cx="132.96" cy="221.176" r="12.5" fill="#D9D9D9" fill-opacity="0.1"/>
<circle cx="172.959" cy="221.175" r="12.5" fill="#D9D9D9" fill-opacity="0.1"/>
<circle cx="212.96" cy="221.176" r="12.5" fill="#D9D9D9" fill-opacity="0.1"/>
<circle cx="252.96" cy="221.175" r="12.5" fill="#D9D9D9" fill-opacity="0.1"/>
<circle cx="292.96" cy="221.176" r="12.5" fill="#D9D9D9" fill-opacity="0.1"/>
<circle cx="332.961" cy="221.176" r="12.5" fill="#D9D9D9" fill-opacity="0.1"/>
<circle cx="372.96" cy="221.176" r="12.5" fill="#D9D9D9" fill-opacity="0.1"/>
<circle cx="12.96" cy="273.175" r="12.5" fill="#D9D9D9" fill-opacity="0.1"/>
<circle cx="52.9597" cy="273.175" r="12.5" fill="#D9D9D9" fill-opacity="0.1"/>
<circle cx="92.9602" cy="273.175" r="12.5" fill="#D9D9D9" fill-opacity="0.1"/>
<circle cx="132.96" cy="273.175" r="12.5" fill="#D9D9D9" fill-opacity="0.1"/>
<circle cx="172.959" cy="273.175" r="12.5" fill="#D9D9D9" fill-opacity="0.1"/>
<circle cx="212.96" cy="273.175" r="12.5" fill="#D9D9D9" fill-opacity="0.1"/>
<circle cx="252.96" cy="273.175" r="12.5" fill="#D9D9D9" fill-opacity="0.1"/>
<circle cx="292.96" cy="273.175" r="12.5" fill="#D9D9D9" fill-opacity="0.1"/>
<circle cx="332.961" cy="273.176" r="12.5" fill="#D9D9D9" fill-opacity="0.1"/>
<circle cx="372.96" cy="273.176" r="12.5" fill="#D9D9D9" fill-opacity="0.1"/>
<circle cx="12.9607" cy="325.176" r="12.5" fill="#D9D9D9" fill-opacity="0.1"/>
<circle cx="52.9604" cy="325.176" r="12.5" fill="#D9D9D9" fill-opacity="0.1"/>
<circle cx="92.9609" cy="325.176" r="12.5" fill="#D9D9D9" fill-opacity="0.1"/>
<circle cx="132.961" cy="325.176" r="12.5" fill="#D9D9D9" fill-opacity="0.1"/>
<circle cx="172.96" cy="325.176" r="12.5" fill="#D9D9D9" fill-opacity="0.1"/>
<circle cx="212.961" cy="325.176" r="12.5" fill="#D9D9D9" fill-opacity="0.1"/>
<circle cx="252.96" cy="325.176" r="12.5" fill="#D9D9D9" fill-opacity="0.1"/>
<circle cx="292.961" cy="325.176" r="12.5" fill="#D9D9D9" fill-opacity="0.1"/>
<circle cx="332.961" cy="325.176" r="12.5" fill="#D9D9D9" fill-opacity="0.1"/>
<circle cx="372.961" cy="325.176" r="12.5" fill="#D9D9D9" fill-opacity="0.1"/>
</svg>
