<svg width="137" height="27" viewBox="0 0 137 27" fill="none" xmlns="http://www.w3.org/2000/svg">
<path d="M8.87966 26.3839H3.72809V13.4044H0.21875V9.17859H3.72796V6.1716C3.72796 2.60831 5.28008 0.0527344 10.4177 0.0527344C11.5043 0.0527344 13.2102 0.274093 13.2102 0.274093V4.19802H11.4185C9.59276 4.19802 8.87993 4.7593 8.87993 6.31102V9.17859H13.1419L12.7624 13.4044H8.87979L8.87966 26.3839ZM20.7001 8.84089C20.625 8.84089 20.5478 8.84365 20.4713 8.84558C15.6945 8.84558 13.509 12.4771 13.509 17.6322C13.509 24.1262 16.3439 26.7253 20.5087 26.7253C22.8915 26.7253 24.457 25.7117 25.4085 23.82V26.3857H30.3084V9.18038H25.4085V11.8263C24.6316 10.124 23.0223 8.86106 20.7001 8.84089ZM21.9459 12.9064C23.9522 12.9064 25.1564 14.3208 25.1564 16.7266L25.1611 19.1838C25.1611 20.8053 24.1665 22.7023 21.9459 22.7023C18.5322 22.7023 18.6233 18.9768 18.6233 17.736C18.6233 13.5621 20.4422 12.9064 21.9459 12.9064ZM32.2872 17.7839C32.2872 15.6932 32.1882 8.85208 41.0069 8.85208C44.5469 8.85208 46.025 9.98968 46.025 9.98968L44.837 13.7139C44.837 13.7139 43.3607 12.8924 41.4371 12.8924C38.9734 12.8924 37.4013 14.3359 37.4013 16.8757L37.404 18.6969C37.404 21.1373 38.9209 22.7664 41.4422 22.7664C43.1946 22.7664 44.8098 21.9371 44.8098 21.9371L45.9948 25.5836C45.9948 25.5836 44.6433 26.7284 41.0317 26.7284C32.6349 26.7284 32.2873 20.5906 32.2873 17.7839H32.2872ZM74.7548 8.84558C79.5317 8.84558 81.7517 12.4771 81.7517 17.6322C81.7517 24.1262 78.9167 26.7253 74.7519 26.7253C72.3691 26.7253 70.6077 25.7118 69.6561 23.82V26.3857L64.8179 26.3838V0.57587L69.9548 0.123066V11.5932C70.6963 9.58648 73.1328 8.84558 74.7549 8.84558H74.7548ZM73.3146 12.9064C71.3083 12.9064 69.9548 14.3208 69.9548 16.7266L69.9501 19.1838C69.9471 20.8053 70.8874 22.7023 73.3146 22.7023C76.7284 22.7023 76.6372 18.9768 76.6372 17.736C76.6372 13.5621 74.8185 12.9064 73.3146 12.9064ZM54.938 8.85982C49.52 8.85982 46.6597 11.8454 46.6597 17.1511V18.1368C46.6597 25.0231 50.6765 26.7961 55.4654 26.7961C60.1201 26.7961 62.227 25.4802 62.227 25.4802L61.2658 21.9761C61.2658 21.9761 58.7874 23.0418 56.0813 23.0418C53.2759 23.0418 52.0694 22.3192 51.7601 19.5943H62.6377V16.7831C62.6377 11.0278 59.4275 8.85968 54.9379 8.85968L54.938 8.85982ZM55.0686 12.3687C56.9441 12.3687 58.1593 13.531 58.0926 16.2267H51.7695C51.8792 13.3895 53.1897 12.3688 55.0686 12.3688V12.3687ZM91.9946 8.83619C86.4307 8.83619 83.5015 12.0051 83.5015 17.684C83.5015 25.4758 88.5507 26.73 92.0039 26.73C97.059 26.73 100.422 23.9793 100.422 17.7548C100.422 11.2761 96.6407 8.83619 91.9946 8.83619ZM91.9246 12.9205C94.3711 12.9205 95.3405 14.7711 95.3405 16.8776V18.6887C95.3405 21.2406 93.984 22.7166 91.9153 22.7166C89.9805 22.7166 88.6207 21.3359 88.6207 18.6887V16.8776C88.6207 14.0544 90.2387 12.9205 91.9246 12.9205ZM110.656 8.83619C105.092 8.83619 102.163 12.0051 102.163 17.684C102.163 25.4758 107.212 26.73 110.665 26.73C115.72 26.73 119.084 23.9793 119.084 17.7548C119.084 11.2761 115.302 8.83619 110.656 8.83619ZM110.586 12.9205C113.032 12.9205 114.002 14.7711 114.002 16.8776V18.6887C114.002 21.2406 112.645 22.7166 110.577 22.7166C108.642 22.7166 107.282 21.3359 107.282 18.6887V16.8776C107.282 14.0544 108.9 12.9205 110.586 12.9205ZM121.025 26.3839V0.57587L126.177 0.123066V17.4212L131.288 9.17859H136.729L131.397 17.7155L136.934 26.3839H131.478L126.177 17.967V26.3839H121.025Z" fill="#E6F1FC"/>
</svg>
