<svg width="45" height="45" viewBox="0 0 45 45" fill="none" xmlns="http://www.w3.org/2000/svg">
<path d="M44.1509 0C35.2509 0.330093 28.0332 2.27364 22.5153 5.26978L19.7585 9.9228L19.2939 7.27026C18.3084 7.96916 17.3936 8.70752 16.5516 9.48035L15.1777 13.7349L14.707 11.3598C10.9043 15.6566 9.05586 20.789 9.19356 26.0805C13.6158 17.2364 21.5795 9.77155 29.0226 5.19896L29.9316 6.70685C22.8864 11.0349 15.3021 18.1508 11.0177 26.3699H12.1549C14.0052 25.2349 15.8181 23.8339 17.6185 22.2682L14.786 22.4188L19.8579 20.2383C24.2429 16.1181 28.6012 11.2708 33.2643 7.18188L30.9752 6.69184L36.2606 4.70618C38.7726 2.77199 41.3872 1.13295 44.1509 0ZM3.23297 28.1341V31.0052H15.8122V28.1341H3.23297ZM5.13907 32.7697L2.08422 35.4784L0 43.501L1.35923 45H17.9375L19.2996 43.5011L17.2154 35.4785L14.3242 32.7698L5.13907 32.7697Z" fill="#0074E4"/>
</svg>
