<svg width="112" height="37" viewBox="0 0 112 37" fill="none" xmlns="http://www.w3.org/2000/svg">
<path d="M13.756 0H14.7493C18.1975 0.075763 21.5896 1.47738 24.0258 3.95862C23.1263 4.88671 22.208 5.77693 21.3272 6.70503C19.9591 5.45494 18.31 4.48896 16.5109 4.14802C13.8498 3.5798 10.9825 4.0912 8.75235 5.6254C6.31608 7.23537 4.66692 9.96284 4.31085 12.8797C3.9173 15.7587 4.72314 18.7892 6.57845 21.0242C8.35879 23.2024 11.0762 24.5662 13.8872 24.6609C16.5109 24.8124 19.247 23.9979 21.1585 22.1417C22.6578 20.8348 23.3512 18.846 23.5761 16.9141C20.4651 16.9141 17.3542 16.933 14.2433 16.9141V13.0123H27.3429C28.0175 17.1982 27.043 21.9144 23.8946 24.9071C21.7957 27.0285 18.8909 28.2785 15.9299 28.5248C13.0627 28.8089 10.1017 28.2596 7.55295 26.858C4.49826 25.2101 2.062 22.4258 0.862607 19.1491C-0.261821 16.1375 -0.280562 12.7282 0.768905 9.69767C1.72467 6.93231 3.56123 4.48896 5.92253 2.78429C8.19013 1.09856 10.945 0.170467 13.756 0Z" fill="#E6F1FC"/>
<path d="M88.9058 0.984863H92.9162V28.0322C91.5856 28.0322 90.2363 28.0511 88.9058 28.0133C88.9245 19.0164 88.9058 10.0006 88.9058 0.984863Z" fill="#E6F1FC"/>
<path d="M36.2627 10.3609C38.7365 9.88737 41.4164 10.4177 43.4591 11.914C45.3144 13.2399 46.6075 15.3233 47.001 17.5962C47.507 20.2289 46.8698 23.1079 45.1832 25.1914C43.3654 27.5211 40.3856 28.7712 37.4809 28.5818C34.8197 28.4302 32.2335 27.0854 30.6593 24.8883C28.879 22.4639 28.4479 19.1304 29.4224 16.2893C30.3969 13.2399 33.1518 10.9102 36.2627 10.3609ZM36.8249 13.9596C35.8129 14.2248 34.8759 14.8119 34.2013 15.6453C32.3834 17.8424 32.4959 21.4222 34.5011 23.4678C35.6443 24.6421 37.3684 25.1914 38.9613 24.8694C40.4418 24.6042 41.7349 23.6004 42.4471 22.2745C43.684 20.0206 43.3279 16.9143 41.4351 15.1529C40.217 14.0164 38.4366 13.5429 36.8249 13.9596Z" fill="#E6F1FC"/>
<path d="M56.1262 10.3608C58.956 9.81154 62.0482 10.607 64.1659 12.6148C67.6141 15.74 67.9889 21.5927 65.0467 25.1915C63.2663 27.4643 60.3803 28.7144 57.5317 28.5819C54.8144 28.5061 52.1345 27.1424 50.5228 24.8884C48.705 22.4072 48.3114 18.9978 49.3422 16.0999C50.3729 13.1451 53.0715 10.8912 56.1262 10.3608ZM56.6884 13.9596C55.6764 14.2247 54.7394 14.8119 54.0648 15.6264C52.2657 17.7856 52.3406 21.3086 54.2709 23.3731C55.4141 24.6043 57.1944 25.2104 58.8436 24.8695C60.3053 24.5853 61.6172 23.6004 62.3293 22.2746C63.5474 20.0017 63.1914 16.8954 61.2798 15.1339C60.0617 13.9975 58.2814 13.5429 56.6884 13.9596Z" fill="#E6F1FC"/>
<path d="M72.976 11.459C75.1312 10.0953 77.9985 9.71645 80.3223 10.8908C81.0532 11.2128 81.6529 11.762 82.2338 12.3113C82.2526 11.7999 82.2338 11.2696 82.2526 10.7392C83.5082 10.7582 84.7638 10.7392 86.0382 10.7582V27.4639C86.0194 29.983 85.3823 32.6537 83.5832 34.4909C81.6154 36.5176 78.5982 37.1426 75.8808 36.7259C72.976 36.2903 70.4461 34.15 69.3216 31.4414C70.4461 30.8922 71.6267 30.4565 72.7886 29.9451C73.4446 31.4983 74.7751 32.8241 76.443 33.1272C78.1109 33.4302 80.0412 33.0135 81.1282 31.6119C82.2901 30.1724 82.2901 28.2026 82.2338 26.4411C81.3718 27.2934 80.3785 28.0511 79.1791 28.3352C76.5742 29.0739 73.7069 28.1647 71.7017 26.3843C69.6777 24.6038 68.4783 21.8574 68.5908 19.13C68.647 16.0426 70.3711 13.069 72.976 11.459ZM76.8553 13.8834C75.7122 14.0728 74.6439 14.7168 73.9131 15.607C72.1515 17.7284 72.1515 21.1188 73.9318 23.2022C74.9438 24.4334 76.5742 25.1152 78.1484 24.9448C79.6289 24.7933 80.997 23.8462 81.7279 22.5393C82.9647 20.3232 82.7586 17.3117 81.0907 15.3797C80.06 14.1865 78.4108 13.5993 76.8553 13.8834Z" fill="#E6F1FC"/>
<path d="M97.7296 12.4251C99.9785 10.3037 103.445 9.58397 106.332 10.7015C109.068 11.7432 110.81 14.376 111.691 17.0845C107.625 18.7892 103.577 20.4749 99.51 22.1796C100.072 23.2592 100.934 24.2441 102.096 24.6419C103.727 25.229 105.676 25.0207 107.044 23.9221C107.587 23.5054 108.018 22.9561 108.43 22.4258C109.461 23.1266 110.492 23.8085 111.523 24.5093C110.061 26.7253 107.606 28.2785 104.963 28.5247C102.04 28.8846 98.929 27.7481 97.0362 25.4374C93.9253 21.8007 94.2252 15.7018 97.7296 12.4251ZM99.7349 15.9291C99.0977 16.8572 98.8353 17.9937 98.8541 19.1112C101.571 17.9747 104.289 16.8383 107.006 15.6829C106.556 14.6222 105.469 13.9782 104.364 13.8077C102.583 13.4858 100.728 14.4517 99.7349 15.9291Z" fill="#E6F1FC"/>
</svg>
