<svg width="206" height="45" viewBox="0 0 206 45" fill="none" xmlns="http://www.w3.org/2000/svg">
<path d="M44.1509 0C35.2509 0.330093 28.0332 2.27364 22.5153 5.26978L19.7585 9.9228L19.2939 7.27026C18.3084 7.96916 17.3936 8.70752 16.5516 9.48035L15.1777 13.7349L14.707 11.3598C10.9043 15.6566 9.05586 20.789 9.19356 26.0805C13.6158 17.2364 21.5795 9.77155 29.0226 5.19896L29.9316 6.70685C22.8864 11.0349 15.3021 18.1508 11.0177 26.3699H12.1549C14.0052 25.2349 15.8181 23.8339 17.6185 22.2682L14.786 22.4188L19.8579 20.2383C24.2429 16.1181 28.6012 11.2708 33.2643 7.18188L30.9752 6.69184L36.2606 4.70618C38.7726 2.77199 41.3872 1.13295 44.1509 0ZM3.23297 28.1341V31.0052H15.8122V28.1341H3.23297ZM5.13907 32.7697L2.08422 35.4784L0 43.501L1.35923 45H17.9375L19.2996 43.5011L17.2154 35.4785L14.3242 32.7698L5.13907 32.7697Z" fill="#0074E4"/>
<path d="M54.0379 43.82C52.5499 43.82 51.2582 43.6547 50.1629 43.324C49.0675 42.9933 48.2099 42.3837 47.5899 41.495C46.9905 40.6063 46.6909 39.3147 46.6909 37.62V33.9H52.0849V37.744C52.0849 38.3227 52.2399 38.7567 52.5499 39.046C52.8805 39.3353 53.3352 39.48 53.9139 39.48H57.1379V43.82H54.0379ZM49.5429 37.62C47.4762 37.62 45.6782 37.2687 44.1489 36.566C42.6195 35.8427 41.3485 34.9023 40.3359 33.745C39.3232 32.567 38.5689 31.296 38.0729 29.932C37.5769 28.568 37.3289 27.2453 37.3289 25.964V25.282C37.3289 23.856 37.5872 22.461 38.1039 21.097C38.6205 19.7123 39.3955 18.462 40.4289 17.346C41.4622 16.23 42.7332 15.3413 44.2419 14.68C45.7712 14.0187 47.5382 13.688 49.5429 13.688C51.5269 13.688 53.2732 14.0187 54.7819 14.68C56.3112 15.3413 57.5925 16.23 58.6259 17.346C59.6592 18.462 60.4342 19.7123 60.9509 21.097C61.4882 22.461 61.7569 23.856 61.7569 25.282V25.964C61.7569 27.2453 61.4985 28.568 60.9819 29.932C60.4859 31.296 59.7315 32.567 58.7189 33.745C57.7062 34.9023 56.4352 35.8427 54.9059 36.566C53.3765 37.2687 51.5889 37.62 49.5429 37.62ZM49.5429 32.226C50.5349 32.226 51.4235 32.0607 52.2089 31.73C52.9942 31.3993 53.6659 30.9343 54.2239 30.335C54.7819 29.7357 55.2055 29.0433 55.4949 28.258C55.7842 27.452 55.9289 26.584 55.9289 25.654C55.9289 24.662 55.7739 23.763 55.4639 22.957C55.1745 22.151 54.7509 21.4587 54.1929 20.88C53.6349 20.3013 52.9632 19.857 52.1779 19.547C51.3925 19.237 50.5142 19.082 49.5429 19.082C48.5509 19.082 47.6622 19.237 46.8769 19.547C46.0915 19.857 45.4199 20.3013 44.8619 20.88C44.3039 21.4587 43.8802 22.151 43.5909 22.957C43.3015 23.763 43.1569 24.662 43.1569 25.654C43.1569 26.584 43.3015 27.452 43.5909 28.258C43.8802 29.0433 44.3039 29.7357 44.8619 30.335C45.4199 30.9343 46.0915 31.3993 46.8769 31.73C47.6622 32.0607 48.5509 32.226 49.5429 32.226ZM70.7239 37.558C68.7812 37.558 67.2725 36.9277 66.1979 35.667C65.1439 34.3857 64.6169 32.4327 64.6169 29.808V19.888H70.2589V29.963C70.2589 30.7277 70.4862 31.3477 70.9409 31.823C71.3955 32.2983 72.0052 32.536 72.7699 32.536C73.5345 32.536 74.1545 32.2983 74.6299 31.823C75.1052 31.3477 75.3429 30.707 75.3429 29.901V19.888H80.9849V37H76.5209V29.808H76.8309C76.8309 31.5647 76.6035 33.0217 76.1489 34.179C75.7149 35.3157 75.0639 36.163 74.1959 36.721C73.3279 37.279 72.2532 37.558 70.9719 37.558H70.7239ZM85.957 37V19.888H91.599V37H85.957ZM83.787 23.98V19.888H91.599V23.98H83.787ZM88.282 18.524C87.2486 18.524 86.484 18.2657 85.988 17.749C85.5126 17.2117 85.275 16.5297 85.275 15.703C85.275 14.8763 85.5126 14.2047 85.988 13.688C86.484 13.1507 87.2383 12.882 88.251 12.882C89.2843 12.882 90.0386 13.1507 90.514 13.688C90.9893 14.2047 91.227 14.8763 91.227 15.703C91.227 16.5297 90.9893 17.2117 90.514 17.749C90.0386 18.2657 89.2946 18.524 88.282 18.524ZM95.9947 37V14.37H101.637V37H95.9947ZM94.0727 18.462V14.37H101.637V18.462H94.0727ZM106.045 37V14.37H111.687V37H106.045ZM104.123 18.462V14.37H111.687V18.462H104.123ZM124.373 37.62C122.865 37.62 121.521 37.3927 120.343 36.938C119.165 36.4833 118.163 35.853 117.336 35.047C116.53 34.241 115.91 33.311 115.476 32.257C115.063 31.203 114.856 30.0767 114.856 28.878V28.134C114.856 26.894 115.073 25.7367 115.507 24.662C115.962 23.5873 116.603 22.647 117.429 21.841C118.256 21.035 119.258 20.4047 120.436 19.95C121.614 19.4953 122.927 19.268 124.373 19.268C125.841 19.268 127.153 19.4953 128.31 19.95C129.488 20.4047 130.491 21.035 131.317 21.841C132.144 22.647 132.774 23.5873 133.208 24.662C133.663 25.7367 133.89 26.894 133.89 28.134V28.878C133.89 30.0767 133.673 31.203 133.239 32.257C132.826 33.311 132.206 34.241 131.379 35.047C130.573 35.853 129.581 36.4833 128.403 36.938C127.225 37.3927 125.882 37.62 124.373 37.62ZM124.373 32.908C125.241 32.908 125.954 32.722 126.512 32.35C127.091 31.978 127.525 31.4613 127.814 30.8C128.104 30.118 128.248 29.3533 128.248 28.506C128.248 27.6173 128.093 26.8423 127.783 26.181C127.494 25.499 127.06 24.9617 126.481 24.569C125.903 24.1763 125.2 23.98 124.373 23.98C123.547 23.98 122.844 24.1763 122.265 24.569C121.687 24.9617 121.242 25.499 120.932 26.181C120.643 26.8423 120.498 27.6173 120.498 28.506C120.498 29.3533 120.643 30.118 120.932 30.8C121.222 31.4613 121.656 31.978 122.234 32.35C122.813 32.722 123.526 32.908 124.373 32.908ZM139.779 37L134.881 19.888H140.647L145.204 37H139.779ZM141.577 37V32.288H147.064V37H141.577ZM143.561 37L147.436 19.888H152.83L148.614 37H143.561ZM165.497 37V31.978H164.567V26.615C164.567 25.8297 164.381 25.251 164.009 24.879C163.658 24.4863 163.069 24.29 162.242 24.29C161.85 24.29 161.271 24.3003 160.506 24.321C159.742 24.3417 158.936 24.3727 158.088 24.414C157.241 24.4553 156.466 24.4967 155.763 24.538V19.826C156.259 19.7847 156.848 19.7433 157.53 19.702C158.212 19.6607 158.915 19.6297 159.638 19.609C160.382 19.5883 161.064 19.578 161.684 19.578C163.441 19.578 164.929 19.8363 166.148 20.353C167.388 20.8697 168.329 21.6447 168.969 22.678C169.631 23.7113 169.961 25.0237 169.961 26.615V37H165.497ZM160.072 37.434C158.874 37.434 157.809 37.217 156.879 36.783C155.949 36.349 155.216 35.729 154.678 34.923C154.162 34.0963 153.903 33.1147 153.903 31.978C153.903 30.6967 154.244 29.6633 154.926 28.878C155.608 28.072 156.549 27.483 157.747 27.111C158.946 26.739 160.32 26.553 161.87 26.553H165.187V29.467H161.87C161.106 29.467 160.517 29.6633 160.103 30.056C159.69 30.428 159.483 30.9343 159.483 31.575C159.483 32.195 159.69 32.7013 160.103 33.094C160.517 33.466 161.106 33.652 161.87 33.652C162.366 33.652 162.8 33.5693 163.172 33.404C163.565 33.218 163.885 32.908 164.133 32.474C164.381 32.04 164.526 31.4407 164.567 30.676L165.869 31.916C165.766 33.094 165.477 34.0963 165.001 34.923C164.547 35.729 163.906 36.349 163.079 36.783C162.273 37.217 161.271 37.434 160.072 37.434ZM181.884 37.248C180.024 37.248 178.536 37.0207 177.42 36.566C176.325 36.1113 175.529 35.357 175.033 34.303C174.537 33.249 174.289 31.823 174.289 30.025L174.32 15.424H179.528L179.497 30.18C179.497 30.9447 179.693 31.5337 180.086 31.947C180.499 32.3397 181.088 32.536 181.853 32.536H184.209V37.248H181.884ZM171.809 23.98V19.888H184.209V23.98H171.809ZM195.201 37.62C193.755 37.62 192.473 37.372 191.357 36.876C190.241 36.38 189.301 35.7083 188.536 34.861C187.772 34.0137 187.183 33.063 186.769 32.009C186.377 30.955 186.18 29.87 186.18 28.754V28.134C186.18 26.9767 186.377 25.871 186.769 24.817C187.183 23.7423 187.761 22.7917 188.505 21.965C189.27 21.1383 190.2 20.4873 191.295 20.012C192.391 19.516 193.631 19.268 195.015 19.268C196.855 19.268 198.415 19.6813 199.696 20.508C200.978 21.3347 201.959 22.43 202.641 23.794C203.323 25.1373 203.664 26.6047 203.664 28.196V29.994H188.536V26.956H200.409L198.456 28.32C198.456 27.3487 198.322 26.5323 198.053 25.871C197.805 25.189 197.423 24.6723 196.906 24.321C196.41 23.9697 195.78 23.794 195.015 23.794C194.271 23.794 193.62 23.9697 193.062 24.321C192.525 24.6517 192.112 25.1683 191.822 25.871C191.533 26.553 191.388 27.421 191.388 28.475C191.388 29.4257 191.523 30.2523 191.791 30.955C192.06 31.637 192.473 32.164 193.031 32.536C193.589 32.908 194.313 33.094 195.201 33.094C195.987 33.094 196.627 32.9597 197.123 32.691C197.64 32.4223 198.002 32.0607 198.208 31.606H203.354C203.106 32.7633 202.61 33.7967 201.866 34.706C201.143 35.6153 200.213 36.3283 199.076 36.845C197.96 37.3617 196.669 37.62 195.201 37.62Z" fill="#0B0B0B"/>
</svg>
