<svg width="142" height="35" viewBox="0 0 142 35" fill="none" xmlns="http://www.w3.org/2000/svg">
<path d="M16.0373 0.384004C14.2107 0.590893 11.4709 1.45028 9.91199 2.30966C5.72346 4.58544 2.88912 8.13438 1.47195 12.861C1.18852 13.784 0.857842 16.2985 0.873588 17.4762C0.873588 18.5107 1.18852 21.0411 1.37747 21.6458C1.47195 21.9323 1.67665 22.6166 1.84986 23.1418C2.1333 24.033 3.50323 26.834 3.73942 27.0249C3.78666 27.0727 4.0386 27.391 4.2748 27.757C4.85741 28.6323 6.38481 30.1919 7.53429 31.0831C8.41609 31.7675 10.904 33.2157 11.2189 33.2316C11.2977 33.2316 11.3134 32.6268 11.2662 31.8311C11.1559 30.0646 11.4866 27.6615 12.1952 25.2107C12.3212 24.7969 12.4157 24.2558 12.4157 24.0171C12.4157 23.7784 12.4786 23.5237 12.5574 23.4442C12.6361 23.3487 12.7778 22.8871 12.8566 22.4097C12.951 21.9323 13.1085 21.2002 13.2187 20.7864C13.3762 20.1658 13.3604 19.927 13.14 19.2586C12.8251 18.2401 12.8093 16.585 13.1242 15.7893C13.8643 13.8954 14.6831 13.1793 16.0688 13.1793C17.7379 13.1793 18.541 14.4524 18.2261 16.585C18.0843 17.5558 17.6907 19.0836 17.4387 19.561C17.3758 19.7042 17.2655 20.1021 17.2183 20.4363C17.1553 20.7864 17.0293 21.2798 16.9506 21.5503C16.7302 22.171 17.1553 23.3805 17.7222 23.842C18.2575 24.2717 19.3755 24.399 20.399 24.1603C21.1234 24.0012 21.4226 23.8102 22.1784 23.0781C23.0759 22.1869 23.753 21.1525 23.753 20.6591C23.753 20.5159 23.8318 20.3249 23.9262 20.2294C24.3671 19.7838 24.6033 16.3144 24.2726 14.8503C23.9105 13.2429 22.7925 11.6674 21.3438 10.7444C19.8952 9.8054 16.9034 9.53486 15.061 10.1714C13.7698 10.617 12.6204 11.365 11.8803 12.2403C11.2189 13.0201 10.5261 14.2933 10.5261 14.7389C10.5261 14.8981 10.4474 15.1049 10.3529 15.2004C10.2584 15.2959 10.1482 15.9007 10.1009 16.5532C10.0222 17.5239 10.0852 17.9696 10.3686 18.9244C10.5576 19.5769 10.904 20.3408 11.1087 20.6273C11.5339 21.2002 11.5339 21.423 11.1402 22.9508C11.03 23.3646 10.841 23.7465 10.7308 23.7943C9.73878 24.1762 7.72325 21.7731 7.04615 19.386C6.79421 18.4788 6.77847 15.2482 7.03041 14.2933C7.14063 13.8954 7.32959 13.3543 7.45556 13.0679C7.58153 12.7973 7.69175 12.5268 7.69175 12.4631C7.69175 12.3995 8.00668 11.8584 8.40034 11.2695C10.4474 8.15029 13.7698 6.49518 17.9741 6.49518C18.9346 6.49518 19.9267 6.55884 20.1943 6.63841C22.3673 7.32274 22.95 7.54554 23.8003 8.05481C25.4536 9.05742 26.6503 10.4261 27.8471 12.7178C27.9258 12.861 28.036 13.2429 28.0833 13.5612C28.1462 13.8795 28.2565 14.1819 28.3352 14.2296C28.4139 14.2774 28.4769 15.3118 28.4769 16.5372C28.4769 18.7494 28.3195 19.6406 27.6581 21.4548C26.918 23.4442 25.0127 25.6404 23.2806 26.4997C22.2886 26.9772 20.4305 27.5024 19.6905 27.5024C18.6984 27.5024 16.7459 26.6748 16.2105 26.0064C15.9586 25.704 15.7224 25.8154 15.7224 26.2451C15.7224 26.4043 15.6594 26.6748 15.5649 26.834C15.4862 26.9772 15.3445 27.4228 15.2657 27.8207C14.8091 29.9214 14.1635 31.6242 13.1715 33.2157C12.8723 33.709 13.1242 33.9955 13.943 34.1069C14.3525 34.1705 14.9036 34.2819 15.1555 34.3615C15.7854 34.5684 19.2023 34.5366 20.3518 34.3297C21.3911 34.1387 23.0759 33.6613 23.8318 33.343C28.5871 31.3696 32.1931 27.3591 33.7519 22.2506C34.5865 19.5292 34.6337 16.3622 33.8779 13.1793C33.626 12.1448 33.5472 11.9061 32.8701 10.3147C31.8939 7.99115 29.6894 5.26976 27.4534 3.59874C25.5324 2.16643 23.6428 1.33888 20.6982 0.622722C19.8794 0.431748 16.9663 0.272603 16.0373 0.384004ZM58.0328 6.12915C57.4187 6.22464 56.4424 7.24317 56.1905 8.03889C55.9228 8.91419 56.1905 9.85315 56.9463 10.5852C58.6154 12.2244 61.5127 10.6807 61.1506 8.32535C60.9301 6.82939 59.5759 5.87452 58.0328 6.12915ZM40.8693 7.06811C40.7276 7.22725 40.7276 26.4202 40.885 26.643C40.9638 26.7703 41.6409 26.818 42.9636 26.8021L44.9319 26.7862L45.0106 23.5556C45.0736 20.9297 45.1366 20.2931 45.3255 20.1817C45.4515 20.1021 46.5222 20.0225 47.7032 20.0225C50.2856 20.0225 51.3721 19.8316 52.5531 19.195C54.0962 18.3515 54.9938 17.142 55.4819 15.2163C55.7811 14.0068 55.7811 13.1315 55.4661 11.8902C55.1827 10.7762 55.0567 10.5056 54.3797 9.59852C53.5451 8.46858 52.6948 7.84792 51.3091 7.35457C50.5375 7.09994 49.8919 7.05219 45.7192 7.00445C43.121 6.97262 40.9323 7.00445 40.8693 7.06811ZM49.514 11.0308C50.569 11.365 51.0887 11.8425 51.3249 12.7018C51.624 13.8318 51.4036 14.8821 50.7422 15.5187C50.0179 16.203 49.3723 16.3622 47.2623 16.3622C45.8766 16.3622 45.4515 16.3144 45.2625 16.1076C45.0578 15.9166 45.0106 15.4551 45.0106 13.6408C45.0106 10.7762 44.9948 10.7921 47.1836 10.7921C48.1283 10.7921 49.0416 10.8876 49.514 11.0308ZM77.1331 10.0919C77.1331 11.19 77.0544 12.2244 76.9756 12.3995C76.8654 12.6064 76.645 12.7018 76.2671 12.7018C75.9836 12.7018 75.7159 12.7655 75.6844 12.861C75.6687 12.9406 75.6687 13.4976 75.7159 14.0864C75.7947 15.1368 75.8104 15.1527 76.2828 15.2641C76.5505 15.3118 76.8497 15.4073 76.9442 15.471C77.0859 15.5505 77.1331 16.8078 77.1331 19.9907C77.1331 24.2717 77.1488 24.4309 77.4953 25.0674C78.2196 26.4202 79.3533 26.8976 81.6523 26.834L83.1955 26.7862L83.2427 25.2425L83.2899 23.6829H82.8963C82.2979 23.6829 81.4161 23.2054 81.3216 22.8235C81.2744 22.6325 81.2272 20.9456 81.2272 19.0517C81.2272 16.4418 81.2744 15.5665 81.4319 15.4391C81.5421 15.3437 81.983 15.2482 82.4081 15.2163L83.1955 15.1686V12.7814L82.3294 12.7337C81.857 12.7018 81.4161 12.5904 81.3531 12.495C81.2901 12.3836 81.2272 11.3491 81.2272 10.1874V8.08664H77.1331V10.0919ZM135.662 8.18212C135.599 8.24578 135.552 9.2484 135.552 10.4102C135.552 12.67 135.536 12.7018 134.67 12.7018C134.277 12.7018 134.277 12.7178 134.324 13.9273C134.371 15.1368 134.387 15.1686 134.796 15.2163C135.017 15.2482 135.284 15.3596 135.363 15.4551C135.458 15.5665 135.552 17.4921 135.599 19.943C135.647 22.2983 135.725 24.4468 135.788 24.7014C135.977 25.4016 136.953 26.2929 137.882 26.5952C138.922 26.9454 141.567 26.9772 141.835 26.643C141.961 26.4997 142.008 25.9268 141.977 25.0993L141.929 23.7624L141.378 23.667C140.78 23.5715 140.103 23.2532 139.93 22.9826C139.867 22.8871 139.804 21.1525 139.804 19.1313C139.804 14.9776 139.709 15.2482 141.079 15.2482C141.977 15.2482 142.055 15.089 141.977 13.6408L141.929 12.7814L140.906 12.7018L139.882 12.6223L139.804 10.3942L139.725 8.16621L137.741 8.11846C136.654 8.10255 135.725 8.13438 135.662 8.18212ZM69.3387 12.3199C68.5671 12.5268 67.6696 13.052 67.0712 13.6726C66.3469 14.4365 66.1579 14.3888 66.0792 13.418L66.0319 12.7814H62.0954V26.7862L64.0794 26.818C66.0319 26.8658 66.0792 26.8499 66.1737 26.4997C66.2209 26.3088 66.2681 24.2876 66.2681 21.9959C66.2681 17.4603 66.2839 17.333 67.2129 16.4418C67.6223 16.0439 67.8428 15.9643 68.7246 15.9166L69.7481 15.8529L70.3622 16.5054C71.0865 17.2693 71.0078 16.5373 71.0708 23.1259C71.0865 24.8765 71.1023 26.4202 71.118 26.5793C71.1495 26.8021 71.4014 26.834 73.165 26.8021L75.1648 26.7862V15.6142L74.7082 14.7071C73.9209 13.1315 72.7084 12.3836 70.8503 12.2881C70.189 12.2722 69.5119 12.2722 69.3387 12.3199ZM89.0216 12.3199C87.321 12.7814 86.5022 13.2429 85.4472 14.2933C84.03 15.7415 83.3844 17.4285 83.3844 19.7042C83.4002 23.6988 85.8723 26.6589 89.5255 27.009C92.6433 27.3114 95.0524 26.3883 96.5956 24.3035C96.816 24.0012 97.2884 23.0304 97.2884 22.8553C97.2884 22.7917 96.3751 22.728 95.2729 22.728H93.2574L92.785 23.2214C92.2339 23.7943 91.4623 24.1603 90.7537 24.1603C90.0451 24.1603 88.9586 23.651 88.4547 23.1099C88.0768 22.6803 87.5257 21.4389 87.5257 21.0092C87.5257 20.866 88.6752 20.8183 92.3756 20.8183C95.0367 20.8183 97.2884 20.7546 97.3987 20.6909C97.6349 20.5318 97.4144 18.0014 97.068 17.0783C96.3594 15.1527 95.021 13.5294 93.6668 12.9565C93.2731 12.7973 92.8165 12.5904 92.659 12.5109C92.3283 12.3358 89.5255 12.1926 89.0216 12.3199ZM92.0921 15.8052C92.7062 16.2349 93.2416 17.2534 93.1629 17.8263C93.1156 18.1924 93.0842 18.1924 90.423 18.2401C87.3525 18.2878 87.3367 18.2719 87.8249 17.1261C88.1713 16.3304 88.8641 15.6142 89.5097 15.4073C90.2498 15.1686 91.4465 15.3596 92.0921 15.8052ZM112.326 12.3199C110.5 12.8132 109.224 13.6249 108.232 14.8821C107.838 15.3914 107.524 15.8688 107.524 15.9643C107.524 16.0439 107.413 16.3304 107.272 16.6009C107.13 16.8555 106.925 17.6513 106.815 18.3674C106.264 21.7731 107.775 24.956 110.61 26.3883L111.696 26.9454H113.98C116.341 26.9454 116.546 26.8976 117.995 26.1178C119.05 25.5449 120.782 23.3168 120.514 22.8712C120.451 22.7917 119.554 22.728 118.499 22.728H116.562L116.168 23.1895C114.594 24.9879 111.649 24.0648 111.019 21.5662C110.925 21.232 110.925 20.9456 111.003 20.8819C111.082 20.8342 113.334 20.8023 116.027 20.8183C119.869 20.8183 120.908 20.7864 120.924 20.6273C121.065 18.638 120.121 15.6938 118.94 14.4206C118.278 13.7045 117.129 12.9087 116.562 12.7655C116.31 12.7018 116.027 12.5904 115.916 12.5109C115.696 12.3358 112.814 12.1926 112.326 12.3199ZM114.783 15.4232C115.491 15.6779 116.31 16.5691 116.436 17.2534C116.625 18.2878 116.641 18.2878 113.712 18.2401C111.082 18.1924 111.066 18.1924 111.019 17.8263C110.956 17.3807 111.507 16.2826 111.98 15.8688C112.657 15.2959 113.838 15.1049 114.783 15.4232ZM126.026 12.3199C122.798 13.0997 121.632 14.2615 121.617 16.6805C121.617 19.2905 122.908 20.3886 126.734 21.0729C129.364 21.5344 130.12 21.9482 130.088 22.9508C130.072 23.667 129.584 24.1285 128.608 24.3354C127.38 24.6059 126.419 24.3035 125.648 23.4282L125.033 22.728H123.128C121.585 22.728 121.223 22.7757 121.223 22.9508C121.223 23.4123 121.853 24.6218 122.372 25.2266C122.86 25.7518 123.238 26.0064 124.719 26.7225C124.86 26.8021 125.632 26.9294 126.403 27.0249C127.836 27.2 130.324 27.0408 130.954 26.7225C131.096 26.6589 131.505 26.452 131.852 26.2929C132.749 25.8632 133.599 24.8924 133.914 23.9693C134.261 22.919 134.166 21.4548 133.678 20.4363C133.096 19.2427 131.552 18.3833 129.253 17.9696C126.293 17.4444 126.246 17.4285 125.774 16.9669C125.207 16.3781 125.207 16.1712 125.774 15.5346C126.23 15.0254 126.262 15.0095 127.521 15.0095C128.781 15.0095 128.813 15.0254 129.269 15.5346C129.521 15.8211 129.726 16.1553 129.726 16.2826C129.726 16.4736 130.057 16.5213 131.694 16.5213C133.867 16.5213 133.804 16.5691 133.426 15.4391C132.733 13.4339 130.954 12.4154 127.994 12.304C127.081 12.2722 126.199 12.2722 126.026 12.3199ZM105.083 12.6541C104.39 12.8928 103.43 13.6885 103.13 14.2615C102.831 14.8344 102.563 14.5957 102.485 13.6408L102.406 12.7814H98.4694L98.4222 19.4655C98.4064 23.1418 98.4222 26.3088 98.4694 26.5157C98.5481 26.8658 98.5954 26.8658 100.485 26.834C101.571 26.818 102.453 26.7225 102.516 26.6271C102.579 26.5475 102.642 24.8605 102.642 22.8871C102.642 19.7679 102.674 19.2109 102.941 18.5107C103.492 17.0624 104.673 16.203 106.154 16.203C106.563 16.203 106.736 16.1235 106.783 15.9166C106.894 15.4551 106.909 13.3066 106.815 12.8292C106.72 12.4472 106.642 12.3836 106.217 12.3995C105.933 12.4154 105.429 12.5268 105.083 12.6541ZM56.5841 12.8928C56.5369 13.0042 56.5212 16.1394 56.5369 19.8634L56.5841 26.6271L58.458 26.7066C59.5917 26.7544 60.4105 26.7225 60.5365 26.6271C60.7097 26.4997 60.7569 25.147 60.7569 19.7361C60.7727 16.0439 60.7254 12.9406 60.6782 12.861C60.5207 12.6223 56.6629 12.6541 56.5841 12.8928Z" fill="#E6F1FC"/>
</svg>
