<svg width="127" height="29" viewBox="0 0 127 29" fill="none" xmlns="http://www.w3.org/2000/svg">
<path d="M21.4572 28.4437L13.208 28.2912C10.5369 28.2381 7.85938 28.3442 5.24087 27.7937C1.25733 26.9712 0.975131 22.9385 0.679811 19.5558C0.272925 14.8001 0.430429 9.95823 1.19826 5.24235C1.6314 2.59588 3.33769 1.01729 5.97589 0.844834C14.8814 0.221355 23.8461 0.294315 32.7319 0.586156C33.6704 0.612687 34.6154 0.758608 35.5407 0.924427C40.1084 1.73362 40.2199 6.30359 40.5152 10.1506C40.8106 14.0374 40.6859 17.9441 40.1215 21.8043C39.6687 25.0013 38.8024 27.681 35.147 27.9396C30.5662 28.2779 26.0905 28.5498 21.4966 28.4636C21.4966 28.4437 21.4704 28.4437 21.4572 28.4437ZM16.6074 20.3518C20.0594 18.3487 23.4457 16.3787 26.878 14.3889C23.4195 12.3858 20.0397 10.4159 16.6074 8.42607V20.3518Z" fill="#E6F1FC"/>
<path d="M106.683 24.8092C106.525 25.4592 106.387 25.9699 106.25 26.5138H103.021V1.34229H106.788V10.6282C106.985 10.3762 107.083 10.2701 107.168 10.1573C107.811 9.26187 108.645 8.67818 109.721 8.45267C111.434 8.11439 112.898 8.87717 113.416 10.542C113.751 11.5767 113.967 12.6844 113.993 13.7656C114.046 16.5447 114.007 19.3172 113.908 22.0964C113.869 22.9454 113.613 23.8143 113.291 24.6102C112.235 27.2368 108.783 27.6348 107.07 25.3597C106.965 25.2204 106.866 25.0679 106.683 24.8092ZM106.866 17.8845V22.4877C106.866 23.2372 107.26 23.6949 108.002 23.8673C108.73 24.0398 109.321 23.7546 109.616 23.0714C109.741 22.7862 109.866 22.4877 109.872 22.1892C109.944 19.3769 110.01 16.5646 110.03 13.7457C110.03 13.2217 109.905 12.6778 109.747 12.167C109.452 11.2451 108.638 10.9731 107.838 11.5104C107.234 11.9216 106.866 12.5053 106.866 13.2814V17.8845ZM96.6287 8.81084H100.573V26.5271H97.4949C97.3834 25.8572 97.2718 25.1674 97.1406 24.3582C96.9305 24.6699 96.8059 24.8689 96.6746 25.0679C95.6508 26.5603 94.2005 27.071 92.4876 26.799C91.0241 26.5603 90.1448 25.4194 89.9479 23.549C89.8888 22.9918 89.8626 22.428 89.8626 21.8709C89.8494 17.7253 89.8626 13.5666 89.8626 9.42106V8.79757H93.8527V9.52055C93.8527 13.5268 93.8395 17.5264 93.8658 21.5326C93.8658 22.103 93.9248 22.6933 94.0233 23.2638C94.1349 23.8474 94.5549 24.0597 95.1192 24.0199C96.0315 23.9469 96.6615 23.2637 96.6615 22.3484V9.59351C96.6287 9.33483 96.6287 9.09605 96.6287 8.81084ZM69.4724 8.79757H73.4362V9.54708C73.4362 13.5334 73.4231 17.5131 73.4493 21.4862C73.4493 22.0566 73.5018 22.6469 73.62 23.2041C73.7709 23.8607 74.1515 24.073 74.8012 23.9867C75.7003 23.8607 76.245 23.2306 76.2516 22.3086V9.62004V8.8241H80.1957V26.5271H77.131C77.0194 25.8704 76.9079 25.1939 76.7635 24.3383C76.5666 24.6367 76.455 24.8092 76.3435 24.9883C75.3197 26.5072 73.8825 27.0644 72.1302 26.7924C70.7258 26.5802 69.8661 25.5322 69.6036 23.8143C69.5314 23.277 69.4789 22.7464 69.4789 22.2091C69.4658 17.9044 69.4658 13.5798 69.4658 9.27514L69.4724 8.79757ZM67.4379 18.256C67.4248 18.8529 67.3854 19.4499 67.3526 20.0468C67.2017 21.8377 67.1295 24.3781 65.6988 25.6847C64.7866 26.5072 63.6316 26.8057 62.4372 26.8455C61.9056 26.8587 61.3675 26.8587 60.8359 26.7858C58.3224 26.4011 57.1542 25.2801 56.7342 22.4877C56.2551 19.2642 56.2158 15.9875 56.7867 12.764C57.3774 9.42769 59.4118 8.24705 62.575 8.46593C65.5282 8.67818 66.8473 10.6349 67.1951 13.4206C67.3854 15.0192 67.4773 16.6376 67.4379 18.256ZM63.4216 17.6458C63.4216 16.5115 63.4478 15.3707 63.4084 14.2365C63.3822 13.5798 63.2969 12.9166 63.1591 12.2665C63.0016 11.517 62.5291 11.1589 61.9384 11.1721C61.3609 11.1854 60.954 11.5436 60.744 12.24C60.6718 12.4987 60.5931 12.764 60.5931 13.0227C60.5931 14.8003 60.5799 16.5845 60.5668 18.3621C60.5537 20.0203 60.3437 21.7581 60.8621 23.3433C61.0196 23.8275 61.4265 24.0929 61.9581 24.0929C62.4765 24.0929 62.8178 23.8342 63.0081 23.3699C63.1591 23.0117 63.2903 22.6204 63.2903 22.2357C63.3363 20.7101 63.4216 19.1779 63.4216 17.6458ZM50.9459 14.3094C51.2938 12.5915 51.6219 10.9134 51.9828 9.22871C52.4357 7.08631 52.941 4.94391 53.3873 2.79487C53.4988 2.27088 53.7088 2.14486 54.201 2.15812C55.2576 2.19792 56.3339 2.17139 57.4627 2.17139C57.0952 3.53775 56.7342 4.83778 56.3798 6.11791C55.2576 10.1374 54.1354 14.1702 53.0263 18.2029C52.941 18.5147 52.9016 18.8529 52.9016 19.1846C52.8885 21.3867 52.9016 23.5821 52.9016 25.7842V26.5006H49.0493C49.0362 26.3016 49.01 26.1026 49.01 25.9036C49.01 24.6566 48.9115 23.403 49.0231 22.1693C49.3053 19.2045 48.3734 16.4784 47.6187 13.7191C46.6211 10.0711 45.6105 6.40976 44.613 2.76171C44.5605 2.58925 44.5408 2.40354 44.4883 2.19129H48.4193C49.2462 6.21741 50.0797 10.2435 50.9459 14.3094ZM126.318 18.9325H119.677C119.749 20.279 119.775 21.5591 119.913 22.826C120.011 23.7081 120.491 24.0862 121.245 24.0929C122.033 24.1061 122.492 23.7081 122.676 22.8326C122.735 22.5474 122.774 22.2622 122.801 21.9704C122.827 21.7117 122.84 21.4331 122.86 21.0617C123.982 21.1213 125.078 21.1877 126.161 21.2341C126.791 23.1245 125.655 25.5521 123.746 26.3016C122.243 26.8985 120.701 26.8985 119.165 26.4409C118.03 26.1026 117.183 25.373 116.802 24.252C116.448 23.2041 116.113 22.1096 116.041 21.0152C115.844 18.3157 115.772 15.5896 116.179 12.8834C116.251 12.4324 116.376 12.0012 116.514 11.5635C117.065 9.75933 118.266 8.65165 120.123 8.46593C121.134 8.36644 122.177 8.40624 123.175 8.57869C124.789 8.8639 125.649 10.0379 126.023 11.5767C126.193 12.2997 126.318 13.0426 126.344 13.7788C126.351 15.4702 126.318 17.1483 126.318 18.9325ZM122.545 16.6044C122.545 15.2712 122.558 14.0176 122.532 12.7574C122.532 12.4589 122.42 12.1471 122.308 11.8619C122.085 11.3048 121.619 11.1522 121.061 11.1522C120.504 11.1522 120.149 11.4374 120.011 11.9482C119.591 13.4803 119.729 15.0457 119.742 16.6177C120.746 16.6044 121.659 16.6044 122.545 16.6044Z" fill="#E6F1FC"/>
<path d="M83.2402 5.42163H79.3354V2.22461H90.9907V5.40173H87.1122V26.5008H83.2468L83.2402 5.42163Z" fill="#E6F1FC"/>
</svg>
